# xmcd CD database file
#
# Track frame offsets:
#	150
#	16942
#	34492
#	51183
#
# Disc length: 905 seconds
#
# Revision: 0
# Processed by: cddbd v1.5.1PL2 Copyright (c) Steve Scherf et al.
# Submitted via: CDex 1.51
#
DISCID=2d038704
DTITLE=千万石 - ああ青春 されど青春
DYEAR=1900
DGENRE=Rock
TTITLE0=ああ青春 されど青春
TTITLE1=斑鳩
TTITLE2=OH! YEAH!
TTITLE3=ああ青春 されど青春（カラオケ）
EXTD=
EXTT0=
EXTT1=
EXTT2=
EXTT3=
PLAYORDER=
